<?xml version="1.0" encoding="UTF-8"?>
<?xml-stylesheet href="https://cdnjs.cloudflare.com/ajax/libs/font-awesome/6.5.1/css/all.min.css" type="text/css"?>
<svg aria-roledescription="er" role="graphics-document document" viewBox="0 0 706.171875 465" style="max-width: 100%; max-height: 100%; background: rgb(255, 255, 255);" xmlns="http://www.w3.org/2000/svg" width="100%" id="mermaid-image-editor"><style>#mermaid-image-editor{font-family:"trebuchet ms",verdana,arial,sans-serif;font-size:16px;fill:#000000;}#mermaid-image-editor .error-icon{fill:#552222;}#mermaid-image-editor .error-text{fill:#552222;stroke:#552222;}#mermaid-image-editor .edge-thickness-normal{stroke-width:1px;}#mermaid-image-editor .edge-thickness-thick{stroke-width:3.5px;}#mermaid-image-editor .edge-pattern-solid{stroke-dasharray:0;}#mermaid-image-editor .edge-thickness-invisible{stroke-width:0;fill:none;}#mermaid-image-editor .edge-pattern-dashed{stroke-dasharray:3;}#mermaid-image-editor .edge-pattern-dotted{stroke-dasharray:2;}#mermaid-image-editor .marker{fill:#666;stroke:#666;}#mermaid-image-editor .marker.cross{stroke:#666;}#mermaid-image-editor svg{font-family:"trebuchet ms",verdana,arial,sans-serif;font-size:16px;}#mermaid-image-editor p{margin:0;}#mermaid-image-editor .entityBox{fill:#eee;stroke:#999;}#mermaid-image-editor .attributeBoxOdd{fill:#ffffff;stroke:#999;}#mermaid-image-editor .attributeBoxEven{fill:#f2f2f2;stroke:#999;}#mermaid-image-editor .relationshipLabelBox{fill:hsl(-160, 0%, 93.3333333333%);opacity:0.7;background-color:hsl(-160, 0%, 93.3333333333%);}#mermaid-image-editor .relationshipLabelBox rect{opacity:0.5;}#mermaid-image-editor .relationshipLine{stroke:#666;}#mermaid-image-editor .entityTitleText{text-anchor:middle;font-size:18px;fill:#000000;}#mermaid-image-editor #MD_PARENT_START{fill:#f5f5f5!important;stroke:#666!important;stroke-width:1;}#mermaid-image-editor #MD_PARENT_END{fill:#f5f5f5!important;stroke:#666!important;stroke-width:1;}#mermaid-image-editor :root{--mermaid-font-family:"trebuchet ms",verdana,arial,sans-serif;}</style><g></g><defs><marker orient="auto" markerHeight="240" markerWidth="190" refY="7" refX="0" id="MD_PARENT_START"><path d="M 18,7 L9,13 L1,7 L9,1 Z"></path></marker></defs><defs><marker orient="auto" markerHeight="28" markerWidth="20" refY="7" refX="19" id="MD_PARENT_END"><path d="M 18,7 L9,13 L1,7 L9,1 Z"></path></marker></defs><defs><marker orient="auto" markerHeight="18" markerWidth="18" refY="9" refX="0" id="ONLY_ONE_START"><path d="M9,0 L9,18 M15,0 L15,18" fill="none" stroke="gray"></path></marker></defs><defs><marker orient="auto" markerHeight="18" markerWidth="18" refY="9" refX="18" id="ONLY_ONE_END"><path d="M3,0 L3,18 M9,0 L9,18" fill="none" stroke="gray"></path></marker></defs><defs><marker orient="auto" markerHeight="18" markerWidth="30" refY="9" refX="0" id="ZERO_OR_ONE_START"><circle r="6" cy="9" cx="21" fill="white" stroke="gray"></circle><path d="M9,0 L9,18" fill="none" stroke="gray"></path></marker></defs><defs><marker orient="auto" markerHeight="18" markerWidth="30" refY="9" refX="30" id="ZERO_OR_ONE_END"><circle r="6" cy="9" cx="9" fill="white" stroke="gray"></circle><path d="M21,0 L21,18" fill="none" stroke="gray"></path></marker></defs><defs><marker orient="auto" markerHeight="36" markerWidth="45" refY="18" refX="18" id="ONE_OR_MORE_START"><path d="M0,18 Q 18,0 36,18 Q 18,36 0,18 M42,9 L42,27" fill="none" stroke="gray"></path></marker></defs><defs><marker orient="auto" markerHeight="36" markerWidth="45" refY="18" refX="27" id="ONE_OR_MORE_END"><path d="M3,9 L3,27 M9,18 Q27,0 45,18 Q27,36 9,18" fill="none" stroke="gray"></path></marker></defs><defs><marker orient="auto" markerHeight="36" markerWidth="57" refY="18" refX="18" id="ZERO_OR_MORE_START"><circle r="6" cy="18" cx="48" fill="white" stroke="gray"></circle><path d="M0,18 Q18,0 36,18 Q18,36 0,18" fill="none" stroke="gray"></path></marker></defs><defs><marker orient="auto" markerHeight="36" markerWidth="57" refY="18" refX="39" id="ZERO_OR_MORE_END"><circle r="6" cy="18" cx="9" fill="white" stroke="gray"></circle><path d="M21,18 Q39,0 57,18 Q39,36 21,18" fill="none" stroke="gray"></path></marker></defs><path marker-start="url(#ONLY_ONE_START)" marker-end="url(#ZERO_OR_MORE_END)" style="stroke: gray; fill: none;" d="M345,73.409L307.5,85.341C270,97.273,195,121.136,157.5,141.402C120,161.667,120,178.333,120,186.667L120,195" class="er relationshipLine"></path><path marker-start="url(#ONLY_ONE_START)" marker-end="url(#ZERO_OR_MORE_END)" style="stroke: gray; fill: none;" d="M362.857,95L355.714,103.333C348.571,111.667,334.286,128.333,327.143,145C320,161.667,320,178.333,320,186.667L320,195" class="er relationshipLine"></path><path marker-start="url(#ONLY_ONE_START)" marker-end="url(#ZERO_OR_MORE_END)" style="stroke: gray; fill: none;" d="M427.143,95L434.286,103.333C441.429,111.667,455.714,128.333,462.857,151.25C470,174.167,470,203.333,470,232.5C470,261.667,470,290.833,460.476,313.75C450.952,336.667,431.905,353.333,422.381,361.667L412.857,370" class="er relationshipLine"></path><path marker-start="url(#ONLY_ONE_START)" marker-end="url(#ZERO_OR_MORE_END)" style="stroke: gray; fill: none;" d="M445,76.27L475.514,87.725C506.029,99.18,567.057,122.09,597.572,141.878C628.086,161.667,628.086,178.333,628.086,186.667L628.086,195" class="er relationshipLine"></path><path marker-start="url(#ONLY_ONE_START)" marker-end="url(#ZERO_OR_MORE_END)" style="stroke: gray; fill: none;" d="M445,41.875L456.667,38.229C468.333,34.583,491.667,27.292,506.25,23.646C520.833,20,526.667,20,532.5,26.25C538.333,32.5,544.167,45,544.167,57.5C544.167,70,538.333,82.5,532.5,88.75C526.667,95,520.833,95,506.25,91.354C491.667,87.708,468.333,80.417,456.667,76.771L445,73.125" class="er relationshipLine"></path><path marker-start="url(#ZERO_OR_MORE_START)" marker-end="url(#ONLY_ONE_END)" style="stroke: gray; fill: none;" d="M98.571,270L93.81,278.333C89.048,286.667,79.524,303.333,74.762,320C70,336.667,70,353.333,70,361.667L70,370" class="er relationshipLine"></path><path marker-start="url(#ONLY_ONE_START)" marker-end="url(#ZERO_OR_MORE_END)" style="stroke: gray; fill: none;" d="M170,267.5L182.5,276.25C195,285,220,302.5,244.597,319.718C269.194,336.936,293.387,353.871,305.484,362.339L317.581,370.807" class="er relationshipLine"></path><g transform="translate(345,20 )" id="entity-USER-6e7e2962-0c6f-577d-a7fd-2ce3a0cfd2c8"><rect height="75" width="100" y="0" x="0" class="er entityBox"></rect><text transform="translate(50,37.5)" style="dominant-baseline: middle; text-anchor: middle; font-size: 12px;" y="0" x="0" id="text-entity-USER-6e7e2962-0c6f-577d-a7fd-2ce3a0cfd2c8" class="er entityLabel">USER</text></g><g transform="translate(70,195 )" id="entity-SESSION-8f2b9dc0-ba92-59b4-9121-ff71fe9aae8d"><rect height="75" width="100" y="0" x="0" class="er entityBox"></rect><text transform="translate(50,37.5)" style="dominant-baseline: middle; text-anchor: middle; font-size: 12px;" y="0" x="0" id="text-entity-SESSION-8f2b9dc0-ba92-59b4-9121-ff71fe9aae8d" class="er entityLabel">SESSION</text></g><g transform="translate(270,195 )" id="entity-REFLECTION-9d1d60dc-185a-510b-be8d-6d8f68a9c75e"><rect height="75" width="100" y="0" x="0" class="er entityBox"></rect><text transform="translate(50,37.5)" style="dominant-baseline: middle; text-anchor: middle; font-size: 12px;" y="0" x="0" id="text-entity-REFLECTION-9d1d60dc-185a-510b-be8d-6d8f68a9c75e" class="er entityLabel">REFLECTION</text></g><g transform="translate(317.5810546875,370 )" id="entity-SHAREDDATA-75027f5d-c239-51c1-aab7-12e9e426501a"><rect height="75" width="104.837890625" y="0" x="0" class="er entityBox"></rect><text transform="translate(52.4189453125,37.5)" style="dominant-baseline: middle; text-anchor: middle; font-size: 12px;" y="0" x="0" id="text-entity-SHAREDDATA-75027f5d-c239-51c1-aab7-12e9e426501a" class="er entityLabel">SHARED_DATA</text></g><g transform="translate(570,195 )" id="entity-STREAKFREEZE-aebe61e9-a1f9-5893-9bdd-bd82fe968355"><rect height="75" width="116.171875" y="0" x="0" class="er entityBox"></rect><text transform="translate(58.0859375,37.5)" style="dominant-baseline: middle; text-anchor: middle; font-size: 12px;" y="0" x="0" id="text-entity-STREAKFREEZE-aebe61e9-a1f9-5893-9bdd-bd82fe968355" class="er entityLabel">STREAK_FREEZE</text></g><g transform="translate(20,370 )" id="entity-COURSE-94e4e0ca-538f-5eec-8201-7eda2bcf423a"><rect height="75" width="100" y="0" x="0" class="er entityBox"></rect><text transform="translate(50,37.5)" style="dominant-baseline: middle; text-anchor: middle; font-size: 12px;" y="0" x="0" id="text-entity-COURSE-94e4e0ca-538f-5eec-8201-7eda2bcf423a" class="er entityLabel">COURSE</text></g><rect height="14" width="17.861328125" y="108.92241668701172" x="207.92037963867188" class="er relationshipLabelBox"></rect><text style="text-anchor: middle; dominant-baseline: middle; font-size: 12px;" y="115.92241668701172" x="216.85104370117188" id="rel190" class="er relationshipLabel">has</text><rect height="14" width="34.318359375" y="133.12579345703125" x="312.2673645019531" class="er relationshipLabelBox"></rect><text style="text-anchor: middle; dominant-baseline: middle; font-size: 12px;" y="140.12579345703125" x="329.4265441894531" id="rel191" class="er relationshipLabel">writes</text><rect height="14" width="33.927734375" y="229.36123657226562" x="453.03448486328125" class="er relationshipLabelBox"></rect><text style="text-anchor: middle; dominant-baseline: middle; font-size: 12px;" y="236.36123657226562" x="469.99835205078125" id="rel192" class="er relationshipLabel">shares</text><rect height="14" width="22.958984375" y="111.67404174804688" x="541.22509765625" class="er relationshipLabelBox"></rect><text style="text-anchor: middle; dominant-baseline: middle; font-size: 12px;" y="118.67404174804688" x="552.70458984375" id="rel193" class="er relationshipLabel">uses</text><rect height="14" width="37.30859375" y="50.49999237060547" x="525.5126953125" class="er relationshipLabelBox"></rect><text style="text-anchor: middle; dominant-baseline: middle; font-size: 12px;" y="57.49999237060547" x="544.1669921875" id="rel194" class="er relationshipLabel">friends</text><rect height="14" width="58.697265625" y="310.55291748046875" x="46.146095275878906" class="er relationshipLabelBox"></rect><text style="text-anchor: middle; dominant-baseline: middle; font-size: 12px;" y="317.55291748046875" x="75.4947280883789" id="rel195" class="er relationshipLabel">belongs_to</text><rect height="14" width="35.927734375" y="312.1534729003906" x="225.82666015625" class="er relationshipLabelBox"></rect><text style="text-anchor: middle; dominant-baseline: middle; font-size: 12px;" y="319.1534729003906" x="243.79052734375" id="rel196" class="er relationshipLabel">shared</text></svg>